<svg width="23" height="26" viewBox="0 0 23 26" fill="none" xmlns="http://www.w3.org/2000/svg">
<path fill-rule="evenodd" clip-rule="evenodd" d="M13.1233 2.625H9.62325C9.39119 2.625 9.16863 2.71719 9.00453 2.88128C8.84044 3.04538 8.74825 3.26794 8.74825 3.5V4.375H13.9983V3.5C13.9983 3.26794 13.9061 3.04538 13.742 2.88128C13.5779 2.71719 13.3553 2.625 13.1233 2.625ZM16.6232 4.375V3.5C16.6232 2.57174 16.2545 1.6815 15.5981 1.02513C14.9417 0.368749 14.0515 0 13.1233 0H9.62325C8.69499 0 7.80475 0.368749 7.14838 1.02513C6.492 1.6815 6.12325 2.57174 6.12325 3.5V4.375H1.3125C0.964403 4.375 0.630564 4.51328 0.384422 4.75942C0.138281 5.00556 0 5.3394 0 5.6875C0 6.0356 0.138281 6.36944 0.384422 6.61558C0.630564 6.86172 0.964403 7 1.3125 7H1.8585L2.41325 20.3438C2.4697 21.6973 3.04716 22.9766 4.02493 23.9142C5.00269 24.8519 6.30505 25.3753 7.65975 25.375H15.0885C16.4429 25.3748 17.7448 24.8512 18.7222 23.9136C19.6996 22.976 20.2768 21.697 20.3332 20.3438L20.8897 7H21.4357C21.7838 7 22.1177 6.86172 22.3638 6.61558C22.61 6.36944 22.7482 6.0356 22.7482 5.6875C22.7482 5.3394 22.61 5.00556 22.3638 4.75942C22.1177 4.51328 21.7838 4.375 21.4357 4.375H16.6232ZM18.2612 7H4.48525L5.0365 20.2335C5.0645 20.9104 5.35314 21.5503 5.84204 22.0193C6.33095 22.4883 6.98226 22.7501 7.65975 22.75H15.0885C15.7657 22.7497 16.4166 22.4877 16.9051 22.0187C17.3936 21.5497 17.682 20.9101 17.71 20.2335L18.2612 7ZM7.43575 10.5V19.25C7.43575 19.5981 7.57403 19.9319 7.82017 20.1781C8.06631 20.4242 8.40015 20.5625 8.74825 20.5625C9.09635 20.5625 9.43019 20.4242 9.67633 20.1781C9.92247 19.9319 10.0608 19.5981 10.0608 19.25V10.5C10.0608 10.1519 9.92247 9.81806 9.67633 9.57192C9.43019 9.32578 9.09635 9.1875 8.74825 9.1875C8.40015 9.1875 8.06631 9.32578 7.82017 9.57192C7.57403 9.81806 7.43575 10.1519 7.43575 10.5ZM13.9983 9.1875C14.3463 9.1875 14.6802 9.32578 14.9263 9.57192C15.1725 9.81806 15.3107 10.1519 15.3107 10.5V19.25C15.3107 19.5981 15.1725 19.9319 14.9263 20.1781C14.6802 20.4242 14.3463 20.5625 13.9983 20.5625C13.6502 20.5625 13.3163 20.4242 13.0702 20.1781C12.824 19.9319 12.6858 19.5981 12.6858 19.25V10.5C12.6858 10.1519 12.824 9.81806 13.0702 9.57192C13.3163 9.32578 13.6502 9.1875 13.9983 9.1875Z" fill="#FF0000" fill-opacity="0.9"/>
</svg>
