<svg width="34" height="34" viewBox="0 0 34 34" fill="none" xmlns="http://www.w3.org/2000/svg">
<path d="M27.6251 17.8103L17.0001 28.3333L6.3751 17.8103C5.67428 17.1284 5.12226 16.3087 4.75379 15.4029C4.38533 14.4971 4.2084 13.5249 4.23415 12.5473C4.25989 11.5698 4.48777 10.6082 4.90341 9.72307C5.31905 8.83793 5.91346 8.04845 6.64921 7.40433C7.38495 6.76021 8.2461 6.2754 9.17842 5.98044C10.1107 5.68548 11.094 5.58675 12.0664 5.69048C13.0387 5.7942 13.9791 6.09813 14.8282 6.58312C15.6773 7.06812 16.4168 7.72367 17.0001 8.50851C17.5859 7.72937 18.3263 7.07954 19.1748 6.5997C20.0234 6.11985 20.9618 5.82031 21.9314 5.71983C22.901 5.61934 23.881 5.72008 24.8099 6.01573C25.7388 6.31138 26.5966 6.79558 27.3298 7.43802C28.063 8.08047 28.6556 8.86733 29.0707 9.74935C29.4858 10.6314 29.7143 11.5896 29.742 12.564C29.7698 13.5384 29.5961 14.5081 29.2318 15.4123C28.8675 16.3165 28.3206 17.1358 27.6251 17.8188" stroke="black" stroke-width="2" stroke-linecap="round" stroke-linejoin="round"/>
</svg>
