<svg width="26" height="30" viewBox="0 0 26 30" fill="none" xmlns="http://www.w3.org/2000/svg">
<path d="M13 19.25C16.5195 19.25 19.68 20.0732 21.9434 21.3789C24.2199 22.6923 25.5 24.4324 25.5 26.25V29.5H0.5V26.25C0.5 24.4324 1.7801 22.6923 4.05664 21.3789C6.32001 20.0732 9.48051 19.25 13 19.25ZM13 0.5C14.5663 0.5 16.0862 1.2176 17.2188 2.52441C18.3531 3.83345 19 5.62237 19 7.5L18.9922 7.85059C18.917 9.59914 18.2823 11.2483 17.2188 12.4756C16.0862 13.7824 14.5663 14.5 13 14.5L12.707 14.4912C11.2453 14.4076 9.84305 13.7007 8.78125 12.4756C7.64691 11.1666 7 9.37763 7 7.5L7.00781 7.14941C7.08299 5.40086 7.71774 3.75171 8.78125 2.52441C9.91382 1.2176 11.4337 0.5 13 0.5Z" fill="#FF0000" stroke="#FF0000"/>
</svg>
