<svg width="27" height="30" viewBox="0 0 27 30" fill="none" xmlns="http://www.w3.org/2000/svg">
<path d="M2.24929 26.2992C3.84775 28.25 6.82087 28.25 12.7698 28.25H13.7289C19.6778 28.25 22.6523 28.25 24.2507 26.2992M2.24929 26.2992C0.650834 24.3471 1.19964 21.3852 2.29591 15.4587C3.07516 11.2467 3.46412 9.13936 4.94402 7.89466M24.2507 26.2992C25.8492 24.3471 25.3004 21.3852 24.2041 15.4587C23.4248 11.2467 23.0345 9.13936 21.5546 7.89466M21.5546 7.89466C20.0761 6.64996 17.9595 6.64996 13.7302 6.64996H12.7685C8.53922 6.64996 6.42392 6.64996 4.94402 7.89466" stroke="black" stroke-width="2.5"/>
<path d="M10.585 17.8549L12.3606 19.4749L15.9131 15.4249" stroke="black" stroke-width="2.5" stroke-linecap="round" stroke-linejoin="round"/>
<path d="M9.25317 6.65V5.3C9.25317 4.22587 9.67419 3.19574 10.4236 2.43622C11.173 1.6767 12.1895 1.25 13.2493 1.25C14.3092 1.25 15.3256 1.6767 16.075 2.43622C16.8244 3.19574 17.2455 4.22587 17.2455 5.3V6.65" stroke="black" stroke-width="2.5" stroke-linecap="round"/>
</svg>
