<svg width="21" height="21" viewBox="0 0 21 21" fill="none" xmlns="http://www.w3.org/2000/svg">
<g clip-path="url(#clip0_53_39)">
<path d="M19.6 1.4H1.4V0H19.6V1.4ZM1.414 3.3628C1.44571 3.20417 1.53137 3.06142 1.65643 2.95882C1.7815 2.85622 1.93824 2.8001 2.1 2.8H18.9C19.0618 2.8001 19.2185 2.85622 19.3436 2.95882C19.4686 3.06142 19.5543 3.20417 19.586 3.3628L20.986 10.3628C21.0063 10.4643 21.0038 10.5691 20.9787 10.6695C20.9537 10.77 20.9066 10.8636 20.841 10.9437C20.7754 11.0237 20.6929 11.0883 20.5993 11.1326C20.5057 11.1769 20.4035 11.1999 20.3 11.2H0.7C0.596476 11.1999 0.494255 11.1769 0.400701 11.1326C0.307147 11.0883 0.224589 11.0237 0.158975 10.9437C0.0933619 10.8636 0.0463262 10.77 0.021257 10.6695C-0.00381216 10.5691 -0.00629069 10.4643 0.014 10.3628L1.414 3.3628ZM1.4 12.6V19.6H0V21H21V19.6H19.6V12.6H16.8V15.4H4.2V12.6H1.4Z" fill="#FF0000"/>
<path d="M5.6001 12.6H15.4001V14H5.6001V12.6Z" fill="#FF0000"/>
</g>
<defs>
<clipPath id="clip0_53_39">
<rect width="21" height="21" fill="white"/>
</clipPath>
</defs>
</svg>
